<?xml version="1.0" encoding="utf-8"?>
<!-- Generator: Adobe Illustrator 18.1.1, SVG Export Plug-In . SVG Version: 6.00 Build 0)  -->
<svg version="1.1" id="Layer_1" xmlns="http://www.w3.org/2000/svg" xmlns:xlink="http://www.w3.org/1999/xlink" x="0px" y="0px"
	 viewBox="-305 0 237.8 69.8" enable-background="new -305 0 237.8 69.8" xml:space="preserve">
<g>
	<path fill="#FFFFFF" d="M-238,14.2c0,0,1.6,0.7,2.7-0.2l-3.8-3.8l-18.3,18.3l-7.9,36.7c0,0-9.4,1.5-23-12.1
		C-301.7,39.6-300,29.5-300,29.5l36.3-7.4l18.3-18.3l-3.9-3.9c-0.9,1.1-0.5,3.2-0.5,3.2l-15.7,15.7l-39.5,8.6
		c0,0-1.3,14.2,14.1,29.2c14.2,13.9,28.3,13.2,28.3,13.2l8.6-39.5L-238,14.2z"/>
	<path fill="#FFFFFF" d="M-285.3,50.2c9.7,9.4,17,10.6,17,10.6l5-21.7c0,0,0-0.1,0-0.3c0.1-1-0.1-4.1-5.8-5.5
		c-6.8-1.6-5.5-5.5-5.5-5.5l-11.9,2.6l-8.7,1.8C-295.1,32.3-295,40.9-285.3,50.2z"/>
	<path fill="#FFFFFF" d="M-218.7,49.8c-0.7,0.9-1.6,1.7-2.7,2.3c-1.1,0.6-2.4,0.9-3.8,0.9c-1.4,0-2.7-0.2-3.8-0.7
		c-1.1-0.5-2.1-1.2-2.9-2c-0.8-0.9-1.4-1.9-1.8-3.2c-0.4-1.2-0.7-2.6-0.7-4.1c0-1.4,0.2-2.7,0.7-3.9c0.4-1.2,1.1-2.2,1.9-3.1
		c0.8-0.9,1.8-1.6,3-2.1c2-0.9,4.6-1.1,7.2-0.1c1.1,0.4,2,1.1,2.7,2.1l0.2,0.3l4.4-3.5l-0.2-0.3c-0.6-0.8-1.3-1.4-2.1-2
		c-0.8-0.5-1.7-1-2.6-1.4c-0.9-0.4-1.9-0.6-2.9-0.8c-1-0.2-2-0.3-2.9-0.3c-2.2,0-4.3,0.4-6.2,1.1c-1.9,0.7-3.6,1.7-5,3
		c-1.4,1.3-2.5,2.9-3.3,4.8c-0.8,1.9-1.2,4-1.2,6.3c0,2.2,0.4,4.3,1.1,6.2c0.8,1.9,1.8,3.5,3.2,4.8c1.4,1.3,3,2.4,4.9,3.1
		c1.9,0.7,4,1.1,6.2,1.1c2.5,0,4.6-0.4,6.5-1.3c1.8-0.9,3.4-2.1,4.7-3.7l0.3-0.3l-4.7-3.3L-218.7,49.8z"/>
	<path fill="#FFFFFF" d="M-199.5,37.1c-0.2,0-0.4,0-0.6,0c-1.4,0-2.6,0.4-3.6,1.1c-0.7,0.5-1.2,1.1-1.7,1.7v-2.3h-5.3v19.9h5.5V46.9
		c0-0.3,0.1-0.8,0.2-1.3c0.1-0.5,0.4-1.1,0.7-1.6c0.3-0.5,0.8-0.9,1.4-1.3c0.7-0.4,1.8-0.7,3-0.5c0.2,0,0.5,0.1,0.8,0.2l0.5,0.1
		v-5.1l-0.3-0.1C-199,37.1-199.3,37.1-199.5,37.1z"/>
	<path fill="#FFFFFF" d="M-180.8,39.8c-0.9-0.9-1.9-1.6-3.1-2c-1.2-0.5-2.5-0.7-3.8-0.7c-1.5,0-2.9,0.3-4.1,0.8
		c-1.3,0.5-2.4,1.2-3.3,2.2c-0.9,0.9-1.7,2-2.2,3.4c-0.5,1.3-0.8,2.8-0.8,4.3c0,1.6,0.3,3.1,0.8,4.3c0.5,1.3,1.3,2.4,2.2,3.3
		c0.9,0.9,2.1,1.6,3.4,2c1.3,0.5,2.7,0.7,4.2,0.7c3.7,0,6.6-1.3,8.5-4l0.2-0.3l-3.8-3l-0.2,0.3c-0.5,0.7-1.1,1.3-1.9,1.7
		c-0.8,0.4-1.7,0.6-2.8,0.6c-0.6,0-1.3-0.1-1.9-0.3c-0.6-0.2-1.1-0.5-1.6-0.9c-0.5-0.4-0.8-0.8-1.1-1.4c-0.2-0.4-0.4-0.8-0.4-1.3
		h14.4l0-0.3c0-0.2,0-0.5,0-0.7v-0.6c0-1.8-0.2-3.3-0.7-4.6C-179.3,41.8-179.9,40.7-180.8,39.8z M-183.6,45.2h-9
		c0.2-1.1,0.7-1.9,1.5-2.6c0.9-0.8,2.1-1.2,3.4-1.2c0.7,0,1.3,0.1,1.9,0.3c0.5,0.2,0.9,0.5,1.3,0.9c0.3,0.4,0.6,0.8,0.7,1.3
		C-183.7,44.4-183.6,44.8-183.6,45.2z"/>
	<path fill="#FFFFFF" d="M-146.2,39.6c-0.6-0.8-1.4-1.4-2.3-1.8c-0.9-0.5-2.1-0.7-3.4-0.7c-1.5,0-2.8,0.3-3.9,1
		c-0.9,0.5-1.7,1.3-2.3,2.2c-0.5-0.9-1.2-1.6-2.1-2.2c-1-0.7-2.4-1.1-3.9-1.1c-0.8,0-1.6,0.1-2.2,0.3c-0.7,0.2-1.3,0.5-1.8,0.9
		c-0.5,0.4-1,0.8-1.3,1.2c-0.1,0.1-0.2,0.2-0.3,0.3v-2.2h-5.3v19.9h5.5V46.6c0-0.6,0.1-1.2,0.2-1.8c0.2-0.6,0.4-1.1,0.7-1.5
		c0.3-0.4,0.7-0.8,1.2-1.1c0.5-0.3,1-0.4,1.7-0.4c1.1,0,1.9,0.3,2.4,1c0.5,0.7,0.8,1.6,0.8,2.7v11.9h5.5V46.7c0-0.6,0.1-1.2,0.2-1.8
		c0.1-0.6,0.4-1.1,0.7-1.6c0.3-0.5,0.7-0.8,1.2-1.1c0.5-0.3,1-0.4,1.7-0.4c0.7,0,1.2,0.1,1.6,0.4c0.4,0.3,0.7,0.6,1,1.1
		c0.2,0.5,0.4,1,0.5,1.5c0.1,0.6,0.1,1.2,0.1,1.7v11h5.5V45.2c0-1-0.1-2-0.4-3C-145.1,41.2-145.6,40.3-146.2,39.6z"/>
	<path fill="#FFFFFF" d="M-125.2,39.8c-0.7-0.8-1.6-1.5-2.7-2c-1.1-0.5-2.6-0.8-4.4-0.8c-1.5,0-3,0.3-4.4,0.8
		c-1.5,0.5-2.8,1.3-3.9,2.3l-0.3,0.2l3,3.5l0.3-0.3c0.6-0.6,1.3-1.1,2.2-1.5c0.9-0.4,1.8-0.6,2.7-0.6c1.1,0,2.1,0.3,2.9,0.8
		c0.8,0.5,1.1,1.3,1.1,2.3v0.1c-1.4,0-2.8,0.1-4.2,0.2c-1.6,0.1-3,0.5-4.3,0.9c-1.3,0.5-2.4,1.2-3.3,2c-0.9,0.9-1.3,2.2-1.3,3.7
		c0,1.2,0.3,2.2,0.8,3c0.5,0.8,1.1,1.5,1.9,2c0.7,0.5,1.6,0.8,2.4,1c0.9,0.2,1.7,0.3,2.5,0.3c1.4,0,2.7-0.3,3.8-0.9
		c0.8-0.4,1.4-0.9,1.9-1.4v1.8h5.2v-12c0-1-0.1-2-0.4-3C-124,41.5-124.5,40.6-125.2,39.8z M-129.4,48.8h0.7v0.3
		c0,1.4-0.4,2.5-1.2,3.3c-0.8,0.8-1.9,1.2-3.5,1.2c-0.4,0-0.7,0-1.1-0.1c-0.4-0.1-0.7-0.2-1-0.4c-0.3-0.2-0.5-0.4-0.6-0.6
		c-0.2-0.2-0.2-0.5-0.2-0.9c0-0.6,0.2-1.1,0.6-1.4c0.4-0.4,1-0.7,1.7-0.9c0.7-0.2,1.4-0.4,2.3-0.4
		C-130.9,48.8-130.1,48.8-129.4,48.8z"/>
	<rect x="-119.4" y="26.6" fill="#FFFFFF" width="5.5" height="30.8"/>
	<path fill="#FFFFFF" d="M-94.3,39.8c-0.7-0.8-1.6-1.5-2.8-2c-1.1-0.5-2.6-0.8-4.3-0.8c-1.5,0-3,0.3-4.4,0.8
		c-1.5,0.5-2.8,1.3-3.9,2.3l-0.3,0.2l3,3.5l0.3-0.3c0.6-0.6,1.3-1.1,2.2-1.5c0.9-0.4,1.8-0.6,2.7-0.6c1.1,0,2.1,0.3,2.9,0.8
		c0.8,0.5,1.1,1.3,1.1,2.3v0.1c-1.4,0-2.8,0.1-4.2,0.2c-1.6,0.1-3,0.5-4.3,0.9c-1.3,0.5-2.4,1.2-3.3,2c-0.9,0.9-1.3,2.2-1.3,3.7
		c0,1.2,0.3,2.2,0.8,3c0.5,0.8,1.1,1.5,1.9,2c0.7,0.5,1.6,0.8,2.4,1c0.9,0.2,1.7,0.3,2.5,0.3c1.4,0,2.7-0.3,3.8-0.9
		c0.8-0.4,1.4-0.9,1.9-1.4v1.8h5.2v-12c0-1-0.1-2-0.4-3C-93.2,41.5-93.7,40.6-94.3,39.8z M-98.5,48.8h0.7v0.3c0,1.4-0.4,2.5-1.2,3.3
		c-0.8,0.8-1.9,1.2-3.5,1.2c-0.4,0-0.8,0-1.1-0.1c-0.4-0.1-0.7-0.2-1-0.4c-0.3-0.2-0.5-0.4-0.6-0.6c-0.2-0.2-0.2-0.5-0.2-0.9
		c0-0.6,0.2-1.1,0.6-1.4c0.4-0.4,1-0.7,1.7-0.9c0.7-0.2,1.4-0.4,2.3-0.4C-100.1,48.8-99.3,48.8-98.5,48.8z"/>
	<path fill="#FFFFFF" d="M-67.9,43.4c-0.5-1.3-1.1-2.4-2-3.3c-0.9-0.9-1.9-1.7-3.1-2.2c-1.2-0.5-2.5-0.8-3.9-0.8
		c-0.9,0-1.7,0.1-2.5,0.3c-0.7,0.2-1.4,0.5-1.9,0.8c-0.5,0.3-1,0.6-1.4,1c-0.1,0.1-0.3,0.3-0.4,0.4V26.6h-5.5v30.8h5.3v-2.2
		c0.6,0.7,1.4,1.3,2.3,1.8c1.2,0.6,2.6,0.9,4,0.9c1.5,0,2.9-0.3,4.1-0.9c1.2-0.6,2.2-1.3,3.1-2.3c0.8-1,1.5-2.1,1.9-3.4
		c0.4-1.3,0.7-2.6,0.7-4.1C-67.2,46-67.4,44.7-67.9,43.4z M-72.8,47.5c0,0.7-0.1,1.4-0.3,2.1c-0.2,0.7-0.5,1.3-0.9,1.9
		c-0.4,0.5-1,1-1.6,1.3c-0.6,0.3-1.4,0.5-2.2,0.5c-0.8,0-1.5-0.2-2.2-0.5c-0.6-0.3-1.2-0.8-1.7-1.3c-0.5-0.5-0.8-1.2-1-1.8
		c-0.2-0.7-0.4-1.4-0.4-2.1c0-0.7,0.1-1.4,0.4-2.1c0.2-0.7,0.6-1.3,1-1.9c0.5-0.5,1-1,1.7-1.3c0.6-0.3,1.4-0.5,2.2-0.5
		c0.9,0,1.6,0.2,2.2,0.5c0.6,0.3,1.2,0.8,1.6,1.3c0.4,0.5,0.7,1.2,0.9,1.8C-72.9,46.1-72.8,46.8-72.8,47.5z"/>
</g>
</svg>
